PathFileType	4	(X/Y/Z)	/Users/visionmauri/1_5_1_f_1_Sports2D/1_5_1_f_1_Sports2D_m_person00.trc
DataRate	CameraRate	NumFrames	NumMarkers	Units	OrigDataRate	OrigDataStartFrame	OrigNumFrames
30.0	30.0	10	22	m	30.0	54	432
Frame#	Time	Hip			RHip			RKnee			RAnkle			RBigToe			RSmallToe			RHeel			LHip			LKnee			LAnkle			LBigToe			LSmallToe			LHeel			Neck			Head			Nose			RShoulder			RElbow			RWrist			LShoulder			LElbow			LWrist			
		X1	Y1	Z1	X2	Y2	Z2	X3	Y3	Z3	X4	Y4	Z4	X5	Y5	Z5	X6	Y6	Z6	X7	Y7	Z7	X8	Y8	Z8	X9	Y9	Z9	X10	Y10	Z10	X11	Y11	Z11	X12	Y12	Z12	X13	Y13	Z13	X14	Y14	Z14	X15	Y15	Z15	X16	Y16	Z16	X17	Y17	Z17	X18	Y18	Z18	X19	Y19	Z19	X20	Y20	Z20	X21	Y21	Z21	X22	Y22	Z22
54	1.8041763341067287	0.6743426418192389	0.7878500085147206	0.0301	0.7919792483760738	0.8182585834419679	0.0301	0.9578630737914079	0.42275631789393303	0.129	1.1008607787104356	0.02691235732181294	0.023	1.0832970497574461	-0.0024030842472225326	0.2179	1.1621817602855167	0.0066716702306773585	0.1804	1.1172522141628776	-0.04469179771131244	-0.0119	0.582126309533641	0.7192432672979788	0.0301	0.761008425205939	0.3764700525524568	0.129	0.7891791053202858	0.30130131511868696	0.023	0.9193782751739814	0.07034755275080373	0.2179	0.786276673509993	0.19700473393237847	0.1804	0.7970541649437546	0.3035225173170204	-0.0119	0.4073594094610402	1.335595020289073	0.0008	0.3377181102114945	1.5103020802404434	0.0655	0.3914194843851359	1.402475913046684	0.1076	0.6180603994147345	1.373043444491779	-0.01275	0.8205893756017647	1.1550836076121003	0.0702	0.9772374465077888	0.9415315403806072	0.1076	0.24722345326874845	1.1870656255709475	-0.01275	0.29271088188667493	0.8557494398403929	0.0702	0.31930599334980964	0.8419117928344727	0.1076
55	1.837587006960557	0.6746716021043347	0.7933150732243894	0.0301	0.7946908331641702	0.8161440836343846	0.0301	0.9583708476505803	0.4212471494486684	0.129	1.1006841869537811	0.025723149929897535	0.023	1.0835773104782844	-0.010593651605797403	0.2179	1.1637906925654489	0.0008684405677674406	0.1804	1.1179275965793138	-0.04655266531298492	-0.0119	0.5838604176044035	0.7225687329572609	0.0301	0.7558101653286727	0.39195005664883864	0.129	0.7883301873269627	0.30740199030206344	0.023	0.8861286489264796	0.1424501796194281	0.2179	0.7864318206983435	0.20519152606926044	0.1804	0.7991095735008438	0.3081994013502579	-0.0119	0.4125718928950126	1.3379286434767552	0.0008	0.3421124516838115	1.5093575245445932	0.0655	0.39592654730784427	1.4030733725580191	0.1076	0.621004004982438	1.3746056468359074	-0.01275	0.824252139361923	1.1604625116814051	0.0702	0.9772127564716098	0.9422220602950127	0.1076	0.25616815877748716	1.1907385957665484	-0.01275	0.29820025817574775	0.8592615114092754	0.0702	0.32165549759097856	0.8512704304977983	0.1076
56	1.8709976798143853	0.6733193220569107	0.800985274147666	0.0301	0.7945110213077268	0.8210880098091923	0.0301	0.9595898793886426	0.42248056827889546	0.129	1.1016121420028022	0.02404902078572726	0.023	1.0816468790946872	-0.018642408139221196	0.2179	1.164112062582915	-0.0030872579727616017	0.1804	1.1196135119759965	-0.04955276678577212	-0.0119	0.5829541064521928	0.7301515562998151	0.0301	0.7512482273935549	0.4061717554720793	0.129	0.7805660369276562	0.32502112929245497	0.023	0.8527628541070161	0.2103875331605481	0.2179	0.7826506254181386	0.21007248602354306	0.1804	0.7923541526561162	0.3263343183635861	-0.0119	0.4178717882732443	1.3382238786960472	0.0008	0.34551433022132677	1.5097129899843165	0.0655	0.40099782457754607	1.4022794202929318	0.1076	0.6224361672595194	1.3755422440563618	-0.01275	0.8300254260877259	1.1640112516401127	0.0702	0.9779287835203433	0.9416087955433807	0.1076	0.2645890729986942	1.1936485608233531	-0.01275	0.3029398320923078	0.8652371612354222	0.0702	0.32447738321241515	0.8600225761608289	0.1076
57	1.9044083526682136	0.6725686291523465	0.8069023537585317	0.0301	0.7918397745355292	0.8294564860435562	0.0301	0.9628972246648425	0.4242703323901261	0.129	1.1023316130973142	0.024264486150561253	0.023	1.0782071492514813	-0.025664586735472193	0.2179	1.1647914089177258	-0.008007293286353821	0.1804	1.1205594698319101	-0.04967353906816712	-0.0119	0.5814829712846351	0.7401426350362569	0.0301	0.7501696042039603	0.4127966619313551	0.129	0.7730699475656858	0.34529863635493613	0.023	0.8442853117344687	0.22091428473810554	0.2179	0.789241590913302	0.19282464414371484	0.1804	0.7828474545137848	0.3497853130857111	-0.0119	0.42240163581562945	1.337471111924352	0.0008	0.3473954410990742	1.5101692737834749	0.0655	0.4027479086441554	1.4027247204924493	0.1076	0.6253626153069316	1.3775594054512543	-0.01275	0.8324400563269619	1.1658552644453852	0.0702	0.9779560164781694	0.9412408606080482	0.1076	0.26967988679924	1.195646556421954	-0.01275	0.30616158168556434	0.8704394412298346	0.0702	0.3299522621284026	0.8681061648390846	0.1076
58	1.937819025522042	0.6749040931009327	0.8087836736889163	0.0301	0.7903492389139353	0.8360160236904746	0.0301	0.9669591418324677	0.4253058395553614	0.129	1.1026350138905834	0.025091733629351843	0.023	1.0768198197712986	-0.02997719802474883	0.2179	1.1670496812850824	-0.014301594908305442	0.1804	1.1203249181114672	-0.047078857139333824	-0.0119	0.5823523299580042	0.7480806047877402	0.0301	0.7517965656809177	0.41211683445317054	0.129	0.783767425431274	0.3260162073316286	0.023	0.8796560030817527	0.1272068843220835	0.2179	0.8320151457659009	0.10009414547108263	0.1804	0.7939291175097187	0.3274433062428005	-0.0119	0.42617445032115897	1.3368959811841667	0.0008	0.34873149465179104	1.5100260701826826	0.0655	0.4030864451828227	1.4035757820728327	0.1076	0.628937347921068	1.3795403605541037	-0.01275	0.8316316771120965	1.1686423429528898	0.0702	0.9774733482200336	0.9419263927063994	0.1076	0.2716797352329313	1.1982450406439702	-0.01275	0.3099552903945655	0.8732245661430812	0.0702	0.3412304422060247	0.8776692886937608	0.1076
59	1.9712296983758701	0.6794889377073613	0.8085123313266861	0.0301	0.7921898825460506	0.8401924954225293	0.0301	0.9685466897098106	0.42627861909079273	0.129	1.102944770682282	0.023438406095427303	0.023	1.0783042605423698	-0.029900407952442212	0.2179	1.1685133933116534	-0.016930983749800635	0.1804	1.1198912893448068	-0.044961832044265064	-0.0119	0.5860931927885307	0.7520752836287855	0.0301	0.7529103598060363	0.4094093266897923	0.129	0.8306001983254376	0.22188918880175307	0.023	0.9419031277816621	-0.034246662566249066	0.2179	0.8988113299119866	-0.054209016529389906	0.1804	0.8494976058743499	0.20241809127998067	-0.0119	0.4300083666292576	1.3374190784691695	0.0008	0.3506648562064259	1.5087928136566504	0.0655	0.40594222996066354	1.4026825152939646	0.1076	0.6310662622211693	1.379619294109014	-0.01275	0.8319511671463496	1.1736638266887574	0.0702	0.9791632754954126	0.9431856034524542	0.1076	0.27484892457103205	1.20243946371023	-0.01275	0.31678121303740614	0.8753952848753974	0.0702	0.35655541813647845	0.8903417788248289	0.1076
60	2.0046403712296987	0.6827687583649749	0.8097756149287617	0.0301	0.7955571570903808	0.8433186675018569	0.0301	0.9669370223500592	0.4269159859849231	0.129	1.1025122715294793	0.020805977132768053	0.023	1.0789136505115915	-0.02604085650350938	0.2179	1.1656250292157322	-0.012057551836634078	0.1804	1.1195728192512946	-0.043836752410623	-0.0119	0.5908838855878743	0.7537348783042986	0.0301	0.7517255448872577	0.40907111704748916	0.129	0.8976652052816929	0.07015430202691977	0.023	0.9865541115137946	-0.15191063337308508	0.2179	0.9425266762023412	-0.16879686196465898	0.1804	0.9291847669937383	0.02044554553694683	-0.0119	0.4337103039022103	1.338895189368613	0.0008	0.3530205722776975	1.5064377180398971	0.0655	0.41011908291681287	1.4015098070036345	0.1076	0.632135256259061	1.3790865203301914	-0.01275	0.8343677929520896	1.179311226645511	0.0702	0.9832676201283146	0.9444046456093613	0.1076	0.2809886296119962	1.2072339420916403	-0.01275	0.3249383501188278	0.8780828232605502	0.0702	0.36744860155402204	0.9032601221816505	0.1076
61	2.038051044083527	0.6829892726026842	0.8138117067025111	0.0301	0.7973768924641248	0.8451696031027182	0.0301	0.9640989114376937	0.42729674041697324	0.129	1.1008168513537047	0.020917599025738046	0.023	1.0762921234429614	-0.022799662470585003	0.2179	1.1587867901078843	-0.0036819329117340244	0.1804	1.1191214050615577	-0.042720194664070905	-0.0119	0.5942206293489981	0.7549246073292917	0.0301	0.7498044279886789	0.4106788669427427	0.129	0.9423395653720391	-0.03166875085028985	0.023	0.9950224619136367	-0.17593702538415423	0.2179	0.9464963159605425	-0.19240351242070985	0.1804	0.9815683784717301	-0.1003681290393459	-0.0119	0.43616474619474305	1.3402633491233769	0.0008	0.3551202677593406	1.504302536633083	0.0655	0.4123791933701293	1.4028762960387735	0.1076	0.6328592714683972	1.380533964413816	-0.01275	0.8360730113224691	1.184819712162658	0.0702	0.9861259176642205	0.9458033221897183	0.1076	0.2869376996684897	1.2113942582945647	-0.01275	0.33025333414987307	0.8816137120115963	0.0702	0.3693371230234651	0.9132112511921131	0.1076
62	2.071461716937355	0.6824034059666293	0.8182052909340876	0.0301	0.7970700861061188	0.845254349677984	0.0301	0.9617646862608885	0.42914331998934324	0.129	1.099484219460605	0.02326132892690115	0.023	1.0735610802224502	-0.024806819651169616	0.2179	1.1539143126146845	-0.000602435017145015	0.1804	1.1186620088949073	-0.04194724090951765	-0.0119	0.5951533789808202	0.7561652693571197	0.0301	0.7494508424644529	0.40969630910338656	0.129	0.9513302559892693	-0.055382813057864806	0.023	0.9891532872835123	-0.15984770384953426	0.2179	0.9377103817217584	-0.17683923358553047	0.1804	0.993588973073634	-0.12992467746397768	-0.0119	0.4379988417634315	1.3416409850250963	0.0008	0.3566659224418963	1.5034765598799462	0.0655	0.41353259598075237	1.405054384845416	0.1076	0.6335219179054926	1.3836002222112527	-0.01275	0.8367608024280377	1.1909087543832462	0.0702	0.9863002207609469	0.948416124460529	0.1076	0.29010277021089415	1.2145131375554892	-0.01275	0.33181814626284994	0.8874730132128914	0.0702	0.3685450701706983	0.918908644926128	0.1076
63	2.1048723897911836	0.6837227482495652	0.8204948691278519	0.0301	0.7964141599950635	0.8444380931243556	0.0301	0.9602861196745152	0.43235277146258116	0.129	1.1005766974895859	0.024488572363483146	0.023	1.0740893949817183	-0.030709545739446082	0.2179	1.1548860879287675	-0.005293347602808507	0.1804	1.1184194640884262	-0.042102057662509934	-0.0119	0.59543966073785	0.7568698196607054	0.0301	0.7484088702970653	0.40726786439072277	0.129	0.945695124589715	-0.04822984166790441	0.023	0.9882013814034056	-0.15290640245936643	0.2179	0.9373488369251189	-0.172548864222202	0.1804	0.9894610573834325	-0.12449457875291978	-0.0119	0.4410381029835554	1.3442309690488692	0.0008	0.35801223059305826	1.5029932306468219	0.0655	0.4159513912340362	1.4039997659999117	0.1076	0.6359533703529489	1.3859355998407237	-0.01275	0.839439059170597	1.1957742843076087	0.0702	0.9856188157143012	0.9528806800521268	0.1076	0.29196626502552886	1.2168021193835938	-0.01275	0.3321976167563986	0.8950757690510249	0.0702	0.3716903891164078	0.9188882556117796	0.1076
